<svg viewBox="0 0 39.3789 40" xmlns="http://www.w3.org/2000/svg" xmlns:xlink="http://www.w3.org/1999/xlink" width="39.378906" height="40.000000" fill="none">
	<rect id="shield 1" width="39.379307" height="40.000000" x="0.000000" y="0.000000" fill="rgb(255,255,255)" fill-opacity="0" />
	<g id="surface1">
		<path id="Vector" d="M36.4173 10.853L36.4161 10.8219C36.399 10.4377 36.3876 10.0312 36.3807 9.57891C36.3485 7.37341 34.6225 5.54907 32.4509 5.42578C27.9233 5.16913 24.4208 3.6695 21.4281 0.706556L21.4026 0.681837C20.4264 -0.227279 18.954 -0.227279 17.9776 0.681837L17.952 0.706556C14.9593 3.6695 11.4568 5.16913 6.9292 5.42609C4.75792 5.54907 3.0316 7.37341 2.99945 9.57921C2.99284 10.0284 2.98112 10.4349 2.964 10.8219L2.9622 10.8942C2.87417 15.5838 2.76481 21.4203 4.68702 26.7178C5.74396 29.631 7.34471 32.1634 9.44448 34.245C11.836 36.6156 14.9684 38.4976 18.7545 39.8385C18.8777 39.8822 19.0057 39.9176 19.1361 39.9441C19.3199 39.9814 19.505 40 19.6901 40C19.8751 40 20.0605 39.9814 20.2441 39.9441C20.3745 39.9176 20.5034 39.8819 20.6271 39.8379C24.4088 38.4945 27.5378 36.6116 29.9272 34.2413C32.0261 32.1591 33.6268 29.6262 34.6847 26.7123C36.6141 21.3989 36.5051 15.5515 36.4173 10.853ZM32.5167 25.9003C30.4894 31.4838 26.3508 35.3183 19.8646 37.6224C19.8415 37.6303 19.8168 37.6373 19.7913 37.6425C19.7243 37.6559 19.6561 37.6559 19.5882 37.6422C19.563 37.637 19.5383 37.6303 19.5155 37.6224C13.0224 35.3226 8.88115 31.4902 6.85529 25.9064C5.0836 21.0233 5.18394 15.6656 5.27257 10.9391L5.27318 10.9128C5.2912 10.5066 5.30322 10.0812 5.30983 9.6137C5.32425 8.63439 6.09217 7.82415 7.05809 7.76953C9.62023 7.62426 11.8711 7.12133 13.9394 6.23205C16.0049 5.344 17.8394 4.09217 19.5471 2.40516C19.6339 2.3307 19.7465 2.33039 19.8331 2.40516C21.5411 4.09217 23.3756 5.344 25.4408 6.23205C27.509 7.12133 29.7599 7.62426 32.3223 7.76953C33.2882 7.82415 34.0562 8.63439 34.0703 9.614C34.0772 10.084 34.0892 10.5094 34.1072 10.9128C34.1956 15.6449 34.2935 21.0068 32.5167 25.9003Z" fill="rgb(4,30,66)" fill-rule="nonzero" />
		<path id="Vector" d="M19.6899 10.0322C14.2783 10.0322 9.87598 14.5043 9.87598 20.0008C9.87598 25.4976 14.2783 29.9697 19.6899 29.9697C25.1011 29.9697 29.5037 25.4976 29.5037 20.0008C29.5037 14.5043 25.1011 10.0322 19.6899 10.0322ZM19.6899 27.6223C15.5525 27.6223 12.1867 24.2034 12.1867 20.0008C12.1867 15.7982 15.5525 12.3793 19.6899 12.3793C23.8269 12.3793 27.1928 15.7982 27.1928 20.0008C27.1928 24.2034 23.8269 27.6223 19.6899 27.6223Z" fill="rgb(4,30,66)" fill-rule="nonzero" />
		<path id="Vector" d="M22.51 16.9055L17.9517 21.5357L16.7145 20.2789C16.2632 19.8206 15.5317 19.8206 15.0804 20.2789C14.6294 20.7373 14.6294 21.4804 15.0804 21.9385L17.1348 24.0253C17.3605 24.2545 17.6561 24.3689 17.9517 24.3689C18.2473 24.3689 18.543 24.2545 18.7686 24.0253L24.1441 18.5651C24.5951 18.1067 24.5951 17.3636 24.1441 16.9055C23.6928 16.4469 22.9613 16.4469 22.51 16.9055Z" fill="rgb(4,30,66)" fill-rule="nonzero" />
	</g>
</svg>
