<svg viewBox="0 0 22.0864 24" xmlns="http://www.w3.org/2000/svg" xmlns:xlink="http://www.w3.org/1999/xlink" width="22.086449" height="24.000000" fill="none">
	<rect id="full-screen (1) 1" width="22.086449" height="24.000000" x="0.000000" y="0.000000" fill="rgb(255,255,255)" fill-opacity="0" />
	<g id="Group">
		<path id="Vector" d="M9.50892 12.917C9.33223 12.917 9.15553 12.9905 9.02095 13.1367L3.45102 19.19L3.45102 15.6972C3.45102 15.2825 3.1425 14.9472 2.76082 14.9472C2.37914 14.9472 2.07062 15.2825 2.07062 15.6972L2.07062 20.9997C2.07062 21.4145 2.37914 21.7497 2.76082 21.7497L7.64054 21.7497C8.02222 21.7497 8.33074 21.4145 8.33074 20.9997C8.33074 20.585 8.02222 20.2497 7.64054 20.2497L4.42766 20.2497L9.99689 14.1972C10.2668 13.904 10.2668 13.43 9.99689 13.1367C9.8623 12.9897 9.68561 12.917 9.50892 12.917Z" fill="rgb(4,30,66)" fill-rule="nonzero" />
		<path id="Vector" d="M19.4023 2.33301L14.5225 2.33301C14.1408 2.33301 13.8323 2.66826 13.8323 3.08301C13.8323 3.49776 14.1408 3.83301 14.5225 3.83301L17.7361 3.83301L12.0889 9.96951C11.819 10.2628 11.819 10.7368 12.0889 11.03C12.3587 11.3233 12.795 11.3233 13.0648 11.03L18.712 4.89351L18.712 8.38551C18.712 8.80026 19.0206 9.13551 19.4023 9.13551C19.7839 9.13551 20.0925 8.80026 20.0925 8.38551L20.0925 3.08301C20.0925 2.66901 19.7839 2.33301 19.4023 2.33301Z" fill="rgb(4,30,66)" fill-rule="nonzero" />
	</g>
</svg>
