<svg viewBox="0 0 24 24" xmlns="http://www.w3.org/2000/svg" xmlns:xlink="http://www.w3.org/1999/xlink" width="24.000000" height="24.000000" fill="none">
	<rect id="return-box 1" width="24.000000" height="24.000000" x="0.000000" y="0.000000" fill="rgb(255,255,255)" fill-opacity="0" />
	<g id="Group">
		<g id="Group">
			<path id="Vector" d="M2.8764 14.0605L3.25112 14.0605C3.51001 14.0605 3.71987 13.8506 3.71987 13.5918C3.71987 13.333 3.51001 13.123 3.25112 13.123L2.8764 13.123C2.61751 13.123 2.40765 13.333 2.40765 13.5918C2.40765 13.8506 2.61751 14.0605 2.8764 14.0605Z" fill="rgb(4,30,66)" fill-rule="nonzero" />
			<path id="Vector" d="M7.9707 14.0605C8.22959 14.0605 8.43945 13.8506 8.43945 13.5918C8.43945 13.333 8.22959 13.123 7.9707 13.123L5.12726 13.123C4.86837 13.123 4.65851 13.333 4.65851 13.5918C4.65851 13.8506 4.86837 14.0605 5.12726 14.0605L7.9707 14.0605Z" fill="rgb(4,30,66)" fill-rule="nonzero" />
			<path id="Vector" d="M2.8764 16.2861L7.97069 16.2861C8.22958 16.2861 8.43944 16.0762 8.43944 15.8174C8.43944 15.5585 8.22958 15.3486 7.97069 15.3486L2.8764 15.3486C2.61751 15.3486 2.40765 15.5585 2.40765 15.8174C2.40765 16.0762 2.61751 16.2861 2.8764 16.2861Z" fill="rgb(4,30,66)" fill-rule="nonzero" />
			<path id="Vector" d="M18.4088 9.69131L18.4088 1.82948C18.4088 0.988687 17.724 0.304688 16.8824 0.304688L1.52508 0.304688C0.684141 0.304688 0 0.988734 0 1.82948L0 7.40189C0 7.66073 0.209859 7.87064 0.46875 7.87064C0.727641 7.87064 0.9375 7.66073 0.9375 7.40189L0.9375 1.82948C0.9375 1.50563 1.20108 1.24219 1.52508 1.24219L5.87292 1.24219L5.87292 7.3222C5.87292 7.49208 5.96484 7.64869 6.11316 7.73147C6.26147 7.81425 6.44302 7.81041 6.58762 7.7212L9.20372 6.1088L11.8198 7.7212C12.127 7.91058 12.5345 7.68136 12.5345 7.32216L12.5345 1.24219L16.8824 1.24219C17.2071 1.24219 17.4713 1.50563 17.4713 1.82948L17.4713 9.55434C17.2883 9.54014 17.1034 9.53273 16.9169 9.53273C13.0113 9.53273 9.83381 12.7094 9.83381 16.614C9.83381 17.008 9.86672 17.3945 9.92892 17.7712L1.52508 17.7712C1.20108 17.7712 0.9375 17.5071 0.9375 17.1825L0.9375 11.6101C0.9375 11.3513 0.727641 11.1414 0.46875 11.1414C0.209859 11.1414 1.16573e-15 11.3513 1.16573e-15 11.6101L1.16573e-15 17.1826C1.16573e-15 18.0241 0.684141 18.7087 1.52508 18.7087L10.1502 18.7087C11.0456 21.5939 13.7404 23.6953 16.9169 23.6953C20.8225 23.6953 24 20.5186 24 16.614C24 13.221 21.6004 10.3781 18.4088 9.69131ZM11.597 6.48267L9.44967 5.15916C9.29887 5.06625 9.10856 5.06625 8.95777 5.15916L6.81042 6.48267L6.81042 1.24219L11.597 1.24219L11.597 6.48267ZM16.9169 22.7578C13.5282 22.7578 10.7713 20.0017 10.7713 16.614C10.7713 13.2264 13.5282 10.4703 16.9169 10.4703C20.3056 10.4703 23.0625 13.2263 23.0625 16.614C23.0625 20.0018 20.3056 22.7578 16.9169 22.7578Z" fill="rgb(4,30,66)" fill-rule="nonzero" />
			<path id="Vector" d="M17.7686 13.8989L15.978 13.8989L16.8137 13.0641C16.9969 12.8811 16.9971 12.5843 16.8141 12.4011C16.6311 12.218 16.3344 12.2179 16.1511 12.4008L14.5142 14.036C14.3335 14.2151 14.3335 14.5202 14.5142 14.6992L16.1511 16.3345C16.2427 16.4259 16.3626 16.4716 16.4824 16.4716C16.6025 16.4716 16.7225 16.4257 16.8141 16.3341C16.997 16.151 16.9969 15.8541 16.8137 15.6711L15.978 14.8363L17.7687 14.8363C18.9029 14.8363 19.8258 15.7588 19.8258 16.8928C19.8258 18.0274 18.9029 18.9505 17.7687 18.9505L13.5394 18.9505C13.2805 18.9505 13.0706 19.1604 13.0706 19.4193C13.0706 19.6781 13.2805 19.888 13.5394 19.888L17.7687 19.888C19.4199 19.888 20.7633 18.5443 20.7633 16.8928C20.7632 15.242 19.4199 13.8989 17.7686 13.8989Z" fill="rgb(4,30,66)" fill-rule="nonzero" />
			<path id="Vector" d="M0.46875 9.97592C0.727641 9.97592 0.9375 9.7647 0.9375 9.50586C0.9375 9.24702 0.727641 9.03711 0.46875 9.03711C0.209859 9.03711 0 9.24702 0 9.50586L0 9.50853C0 9.76737 0.209859 9.97592 0.46875 9.97592Z" fill="rgb(4,30,66)" fill-rule="nonzero" />
		</g>
	</g>
</svg>
