<svg viewBox="0 0 24 24" xmlns="http://www.w3.org/2000/svg" xmlns:xlink="http://www.w3.org/1999/xlink" width="24.000000" height="24.000000" fill="none">
	<rect id="shop 1" width="24.000000" height="24.000000" x="0.000000" y="0.000000" fill="rgb(255,255,255)" fill-opacity="0" />
	<path id="Vector" d="M22.2954 7.23462L22.2952 7.23462L20.7108 2.97683C20.6033 2.69059 20.4112 2.44383 20.1601 2.26935C19.909 2.09488 19.6108 2.00093 19.305 2L4.69482 2C4.38904 2.00093 4.09079 2.09489 3.83969 2.26938C3.58859 2.44388 3.39653 2.69066 3.28904 2.97692L1.70466 7.23472C1.50779 7.76502 1.48904 8.32784 1.65193 8.81956C1.79564 9.25376 2.03695 9.64924 2.35732 9.97564C2.6777 10.302 3.06862 10.5507 3.50007 10.7024L3.50007 19.4999C3.5009 20.1627 3.76455 20.7981 4.2332 21.2667C4.70185 21.7354 5.33723 21.999 6.00001 21.9999L18 21.9999C18.6628 21.999 19.2982 21.7354 19.7668 21.2667C20.2355 20.7981 20.4992 20.1627 20.5 19.4999L20.5 10.7023C20.9314 10.5506 21.3224 10.3019 21.6427 9.97555C21.9631 9.64915 22.2044 9.25366 22.3481 8.81947C22.5113 8.32775 22.4925 7.76492 22.2954 7.23462ZM16.4468 6.74197C16.4822 6.94267 16.5 7.14608 16.5 7.34989L16.5 7.87489C16.5013 8.13835 16.4505 8.39946 16.3506 8.64323C16.2506 8.887 16.1035 9.10863 15.9177 9.29537C15.7318 9.48212 15.5109 9.6303 15.2676 9.73142C15.0243 9.83254 14.7635 9.88459 14.5 9.88459C14.2366 9.88459 13.9757 9.83254 13.7324 9.73142C13.4891 9.6303 13.2682 9.48212 13.0824 9.29537C12.8965 9.10863 12.7494 8.887 12.6495 8.64323C12.5495 8.39946 12.4987 8.13835 12.5 7.87489L12.5 2.99989L15.7864 2.99989L16.4468 6.74197ZM7.50001 7.34989C7.49997 7.14601 7.51777 6.94251 7.55321 6.74173L8.21368 2.99989L11.5 2.99989L11.5 7.87489C11.5 8.13754 11.4483 8.39761 11.3478 8.64026C11.2473 8.88292 11.1 9.1034 10.9142 9.28911C10.7285 9.47483 10.508 9.62215 10.2654 9.72266C10.0227 9.82317 9.76267 9.87491 9.50002 9.87491C9.23738 9.87491 8.9773 9.82317 8.73465 9.72266C8.492 9.62215 8.27152 9.47483 8.0858 9.28911C7.90008 9.1034 7.75276 8.88292 7.65225 8.64026C7.55174 8.39761 7.50001 8.13754 7.50001 7.87489L7.50001 7.34989ZM2.6011 8.5048C2.50932 8.22823 2.52394 7.90091 2.64188 7.58319L4.22626 3.32562C4.26211 3.23019 4.32616 3.14791 4.40988 3.08974C4.49361 3.03157 4.59306 3.00025 4.69501 2.99994L7.19813 2.99994L6.56837 6.56816C6.52288 6.82633 6.50002 7.08798 6.50002 7.35012L6.50002 7.87489C6.49996 8.35008 6.33073 8.80972 6.02266 9.17151C5.71458 9.5333 5.28778 9.7736 4.81868 9.84939C4.34957 9.92518 3.86881 9.8315 3.46248 9.58513C3.05616 9.33876 2.7508 8.95579 2.6011 8.5048ZM19.5 19.4999C19.4996 19.8976 19.3414 20.2789 19.0602 20.5601C18.779 20.8413 18.3977 20.9995 18 20.9999L6.00001 20.9999C5.60232 20.9995 5.22104 20.8413 4.93983 20.5601C4.65862 20.2789 4.50044 19.8976 4.50001 19.4999L4.50001 10.8749C4.99521 10.8747 5.48266 10.752 5.91888 10.5176C6.3551 10.2832 6.72652 9.94448 6.99999 9.53164C7.27334 9.9446 7.64474 10.2834 8.08099 10.5178C8.51724 10.7522 9.00476 10.8749 9.5 10.8749C9.99524 10.8749 10.4828 10.7522 10.919 10.5178C11.3553 10.2834 11.7267 9.9446 12 9.53164C12.2734 9.9446 12.6448 10.2834 13.081 10.5178C13.5173 10.7522 14.0048 10.8749 14.5 10.8749C14.9953 10.8749 15.4828 10.7522 15.919 10.5178C16.3553 10.2834 16.7267 9.9446 17 9.53164C17.2735 9.94448 17.6449 10.2832 18.0811 10.5176C18.5174 10.752 19.0048 10.8747 19.5 10.8749L19.5 19.4999ZM21.3989 8.5048C21.2492 8.95579 20.9439 9.33876 20.5375 9.58513C20.1312 9.8315 19.6504 9.92518 19.1813 9.84939C18.7122 9.7736 18.2854 9.5333 17.9774 9.17151C17.6693 8.80972 17.5001 8.35008 17.5 7.87489L17.5 7.34989C17.5 7.08774 17.4771 6.82609 17.4316 6.56792L16.8019 2.99989L19.305 2.99989C19.4069 3.00019 19.5064 3.0315 19.5901 3.08964C19.6738 3.14779 19.7379 3.23003 19.7738 3.32544L21.3578 7.583C21.4761 7.90091 21.4907 8.22814 21.3989 8.5048Z" fill="rgb(4,30,66)" fill-rule="nonzero" />
	<path id="Vector" d="M16.1802 14.2214L13.7062 13.6858L12.4321 11.4984C12.3881 11.4228 12.325 11.3601 12.2492 11.3165C12.1734 11.2729 12.0875 11.25 12 11.25C11.9126 11.25 11.8266 11.2729 11.7508 11.3165C11.675 11.3601 11.6119 11.4228 11.5679 11.4984L10.2937 13.6858L7.81963 14.2214C7.73413 14.2399 7.65497 14.2805 7.59006 14.3391C7.52516 14.3978 7.47677 14.4724 7.44972 14.5556C7.42268 14.6388 7.41794 14.7276 7.43596 14.8132C7.45399 14.8988 7.49415 14.9782 7.55244 15.0434L9.23947 16.9312L8.98433 19.4498C8.97553 19.5368 8.98971 19.6246 9.02545 19.7044C9.06119 19.7842 9.11723 19.8532 9.18799 19.9046C9.25876 19.956 9.34176 19.9879 9.42872 19.9972C9.51567 20.0065 9.60355 19.9928 9.68356 19.9576L12 18.9367L14.3164 19.9575C14.3964 19.9927 14.4843 20.0064 14.5713 19.9971C14.6582 19.9879 14.7412 19.9559 14.812 19.9045C14.8827 19.8531 14.9388 19.7841 14.9745 19.7043C15.0103 19.6245 15.0244 19.5367 15.0156 19.4497L14.7605 16.9312L16.4473 15.0435C16.5055 14.9783 16.5457 14.8989 16.5637 14.8133C16.5818 14.7277 16.577 14.6389 16.55 14.5557C16.5229 14.4725 16.4745 14.3979 16.4096 14.3392C16.3447 14.2806 16.2656 14.24 16.1801 14.2215L16.1802 14.2214ZM13.8681 16.4289C13.8219 16.4807 13.787 16.5416 13.7655 16.6076C13.744 16.6736 13.7365 16.7434 13.7434 16.8125L13.9341 18.6963L12.2015 17.9328C12.138 17.9048 12.0694 17.8904 12 17.8904C11.9306 17.8904 11.8619 17.9048 11.7984 17.9328L10.0659 18.6962L10.2566 16.8125C10.2635 16.7434 10.256 16.6736 10.2345 16.6076C10.213 16.5416 10.1781 16.4807 10.1319 16.4289L8.87033 15.0173L10.7207 14.6167C10.7885 14.6019 10.8526 14.5733 10.9088 14.5325C10.965 14.4916 11.0121 14.4396 11.0471 14.3796L12 12.7433L12.9529 14.3796C12.9879 14.4396 13.035 14.4916 13.0912 14.5324C13.1474 14.5732 13.2114 14.6019 13.2793 14.6166L15.1296 15.0173L13.8681 16.4289Z" fill="rgb(4,30,66)" fill-rule="nonzero" />
</svg>
