<svg viewBox="0 0 80.125 80" xmlns="http://www.w3.org/2000/svg" xmlns:xlink="http://www.w3.org/1999/xlink" width="80.125000" height="80.000000" fill="none" customFrame="#000000">
	<g id="icons">
		<ellipse id="Ellipse 37" rx="40.062500" ry="40.000000" cx="40.0625" cy="40" fill="rgb(68.3652,49.663,150.875)" />
		<path id="" d="M53.0129 35.9754C53.0129 35.5569 52.8455 35.1384 52.5442 34.8371L50.2674 32.5603C49.966 32.2589 49.5475 32.0915 49.129 32.0915C48.7104 32.0915 48.2919 32.2589 47.9906 32.5603L37.0084 43.5592L32.0866 38.6205C31.7852 38.3192 31.3667 38.1518 30.9482 38.1518C30.5296 38.1518 30.1111 38.3192 29.8098 38.6205L27.533 40.8973C27.2317 41.1987 27.0642 41.6172 27.0642 42.0357C27.0642 42.4542 27.2317 42.8728 27.533 43.1741L33.5933 49.2344L35.87 51.5112C36.1714 51.8125 36.5899 51.9799 37.0084 51.9799C37.427 51.9799 37.8455 51.8125 38.1468 51.5112L40.4236 49.2344L52.5442 37.1138C52.8455 36.8125 53.0129 36.394 53.0129 35.9754Z" fill="rgb(255,255,255)" fill-rule="nonzero" />
	</g>
</svg>
