<svg viewBox="0 0 302.126 92" xmlns="http://www.w3.org/2000/svg" xmlns:xlink="http://www.w3.org/1999/xlink" width="302.126465" height="92.000000" fill="none" customFrame="#000000">
	<defs>
		<g id="pixso_custom_effect_6">
			<effect x="0.000000" y="5.000000" visibility="visible" fill="rgb(0,83,246)" fill-opacity="0.100000001" effectType="dropShadow" stdDeviation="20" radius="0" />
		</g>
		<filter id="filter_6" width="302.126465" height="92.000000" x="0.000000" y="0.000000" filterUnits="userSpaceOnUse" customEffect="url(#pixso_custom_effect_6)" color-interpolation-filters="sRGB">
			<feFlood flood-opacity="0" result="BackgroundImageFix" />
			<feOffset dx="0.000000" dy="5.000000" in="SourceAlpha" />
			<feGaussianBlur stdDeviation="6.66666651" />
			<feColorMatrix type="matrix" values="0 0 0 0 0 0 0 0 0 0.32549 0 0 0 0 0.964706 0 0 0 0.1 0 " />
			<feBlend result="effect_dropShadow_1" in2="BackgroundImageFix" mode="normal" />
			<feBlend result="shape" in="SourceGraphic" in2="effect_dropShadow_1" mode="normal" />
		</filter>
		<clipPath id="clipPath_30">
			<rect width="262.126282" height="52.000000" x="20.000000" y="15.000000" rx="6.000000" fill="rgb(255,255,255)" />
		</clipPath>
	</defs>
	<g filter="url(#filter_6)" customFrame="url(#clipPath_30)">
		<rect id="cart" width="262.126282" height="52.000000" x="20.000000" y="15.000000" rx="6.000000" fill="rgb(0,83,246)" />
		<path id="Shop Now" d="M114.946 43.5125L120.496 43.5125L120.151 42.0125L115.276 42.0125L114.946 43.5125ZM117.691 38.6825L119.356 42.5825L119.401 43.0175L120.826 46.2125L122.821 46.2125L117.691 35.1275L112.561 46.2125L114.556 46.2125L116.011 42.9275L116.041 42.5375L117.691 38.6825ZM129.097 34.5125L129.097 46.2125L130.732 46.2125L130.732 34.5125L129.097 34.5125ZM123.382 42.7625C123.382 43.5125 123.537 44.1575 123.847 44.6975C124.157 45.2375 124.567 45.6525 125.077 45.9425C125.597 46.2225 126.152 46.3625 126.742 46.3625C127.322 46.3625 127.827 46.2175 128.257 45.9275C128.697 45.6375 129.042 45.2225 129.292 44.6825C129.552 44.1425 129.682 43.5025 129.682 42.7625C129.682 42.0125 129.552 41.3725 129.292 40.8425C129.042 40.3025 128.697 39.8875 128.257 39.5975C127.827 39.3075 127.322 39.1625 126.742 39.1625C126.152 39.1625 125.597 39.3075 125.077 39.5975C124.567 39.8775 124.157 40.2875 123.847 40.8275C123.537 41.3575 123.382 42.0025 123.382 42.7625ZM125.062 42.7625C125.062 42.3025 125.157 41.9075 125.347 41.5775C125.537 41.2475 125.787 40.9975 126.097 40.8275C126.417 40.6575 126.762 40.5725 127.132 40.5725C127.442 40.5725 127.747 40.6575 128.047 40.8275C128.357 40.9975 128.607 41.2475 128.797 41.5775C128.997 41.8975 129.097 42.2925 129.097 42.7625C129.097 43.2325 128.997 43.6325 128.797 43.9625C128.607 44.2825 128.357 44.5275 128.047 44.6975C127.747 44.8675 127.442 44.9525 127.132 44.9525C126.762 44.9525 126.417 44.8675 126.097 44.6975C125.787 44.5275 125.537 44.2775 125.347 43.9475C125.157 43.6175 125.062 43.2225 125.062 42.7625ZM137.93 34.5125L137.93 46.2125L139.565 46.2125L139.565 34.5125L137.93 34.5125ZM132.215 42.7625C132.215 43.5125 132.37 44.1575 132.68 44.6975C132.99 45.2375 133.4 45.6525 133.91 45.9425C134.43 46.2225 134.985 46.3625 135.575 46.3625C136.155 46.3625 136.66 46.2175 137.09 45.9275C137.53 45.6375 137.875 45.2225 138.125 44.6825C138.385 44.1425 138.515 43.5025 138.515 42.7625C138.515 42.0125 138.385 41.3725 138.125 40.8425C137.875 40.3025 137.53 39.8875 137.09 39.5975C136.66 39.3075 136.155 39.1625 135.575 39.1625C134.985 39.1625 134.43 39.3075 133.91 39.5975C133.4 39.8775 132.99 40.2875 132.68 40.8275C132.37 41.3575 132.215 42.0025 132.215 42.7625ZM133.895 42.7625C133.895 42.3025 133.99 41.9075 134.18 41.5775C134.37 41.2475 134.62 40.9975 134.93 40.8275C135.25 40.6575 135.595 40.5725 135.965 40.5725C136.275 40.5725 136.58 40.6575 136.88 40.8275C137.19 40.9975 137.44 41.2475 137.63 41.5775C137.83 41.8975 137.93 42.2925 137.93 42.7625C137.93 43.2325 137.83 43.6325 137.63 43.9625C137.44 44.2825 137.19 44.5275 136.88 44.6975C136.58 44.8675 136.275 44.9525 135.965 44.9525C135.595 44.9525 135.25 44.8675 134.93 44.6975C134.62 44.5275 134.37 44.2775 134.18 43.9475C133.99 43.6175 133.895 43.2225 133.895 42.7625ZM145.11 39.3125L145.11 40.7375L149.025 40.7375L149.025 39.3125L145.11 39.3125ZM146.265 36.9125L146.265 46.2125L147.87 46.2125L147.87 36.9125L146.265 36.9125ZM149.617 42.7625C149.617 43.4625 149.777 44.0875 150.097 44.6375C150.427 45.1775 150.872 45.6025 151.432 45.9125C151.992 46.2125 152.627 46.3625 153.337 46.3625C154.047 46.3625 154.677 46.2125 155.227 45.9125C155.787 45.6025 156.232 45.1775 156.562 44.6375C156.892 44.0875 157.057 43.4625 157.057 42.7625C157.057 42.0525 156.892 41.4275 156.562 40.8875C156.232 40.3475 155.787 39.9275 155.227 39.6275C154.677 39.3175 154.047 39.1625 153.337 39.1625C152.627 39.1625 151.992 39.3175 151.432 39.6275C150.872 39.9275 150.427 40.3475 150.097 40.8875C149.777 41.4275 149.617 42.0525 149.617 42.7625ZM151.282 42.7625C151.282 42.3325 151.372 41.9525 151.552 41.6225C151.732 41.2925 151.977 41.0375 152.287 40.8575C152.597 40.6775 152.947 40.5875 153.337 40.5875C153.717 40.5875 154.062 40.6775 154.372 40.8575C154.692 41.0375 154.942 41.2925 155.122 41.6225C155.302 41.9525 155.392 42.3325 155.392 42.7625C155.392 43.1925 155.302 43.5725 155.122 43.9025C154.942 44.2225 154.692 44.4775 154.372 44.6675C154.062 44.8475 153.717 44.9375 153.337 44.9375C152.947 44.9375 152.597 44.8475 152.287 44.6675C151.977 44.4775 151.732 44.2225 151.552 43.9025C151.372 43.5725 151.282 43.1925 151.282 42.7625ZM164.532 40.9625C164.532 40.2125 164.697 39.5625 165.027 39.0125C165.367 38.4525 165.807 38.0225 166.347 37.7225C166.897 37.4125 167.492 37.2575 168.132 37.2575C168.632 37.2575 169.082 37.3225 169.482 37.4525C169.882 37.5825 170.242 37.7625 170.562 37.9925C170.892 38.2125 171.177 38.4625 171.417 38.7425L171.417 36.6425C170.977 36.2825 170.502 36.0075 169.992 35.8175C169.482 35.6275 168.842 35.5325 168.072 35.5325C167.302 35.5325 166.582 35.6625 165.912 35.9225C165.252 36.1825 164.677 36.5575 164.187 37.0475C163.697 37.5375 163.312 38.1175 163.032 38.7875C162.762 39.4475 162.627 40.1725 162.627 40.9625C162.627 41.7525 162.762 42.4825 163.032 43.1525C163.312 43.8125 163.697 44.3875 164.187 44.8775C164.677 45.3675 165.252 45.7425 165.912 46.0025C166.582 46.2625 167.302 46.3925 168.072 46.3925C168.842 46.3925 169.482 46.2975 169.992 46.1075C170.502 45.9175 170.977 45.6425 171.417 45.2825L171.417 43.1825C171.177 43.4625 170.892 43.7175 170.562 43.9475C170.242 44.1675 169.882 44.3425 169.482 44.4725C169.082 44.6025 168.632 44.6675 168.132 44.6675C167.492 44.6675 166.897 44.5175 166.347 44.2175C165.807 43.9075 165.367 43.4725 165.027 42.9125C164.697 42.3525 164.532 41.7025 164.532 40.9625ZM174.483 44.0675C174.483 43.8475 174.533 43.6625 174.633 43.5125C174.743 43.3625 174.903 43.2475 175.113 43.1675C175.323 43.0775 175.598 43.0325 175.938 43.0325C176.328 43.0325 176.698 43.0825 177.048 43.1825C177.398 43.2825 177.728 43.4425 178.038 43.6625L178.038 42.8375C177.948 42.7275 177.793 42.6075 177.573 42.4775C177.353 42.3375 177.073 42.2175 176.733 42.1175C176.403 42.0175 176.008 41.9675 175.548 41.9675C174.688 41.9675 174.023 42.1675 173.553 42.5675C173.083 42.9575 172.848 43.4875 172.848 44.1575C172.848 44.6275 172.958 45.0275 173.178 45.3575C173.398 45.6875 173.693 45.9375 174.063 46.1075C174.433 46.2775 174.833 46.3625 175.263 46.3625C175.663 46.3625 176.053 46.2925 176.433 46.1525C176.823 46.0025 177.143 45.7825 177.393 45.4925C177.653 45.1925 177.783 44.8225 177.783 44.3825L177.543 43.4825C177.543 43.8225 177.458 44.1225 177.288 44.3825C177.128 44.6325 176.913 44.8225 176.643 44.9525C176.383 45.0825 176.093 45.1475 175.773 45.1475C175.523 45.1475 175.298 45.1075 175.098 45.0275C174.908 44.9475 174.758 44.8275 174.648 44.6675C174.538 44.4975 174.483 44.2975 174.483 44.0675ZM173.973 41.1125C174.073 41.0425 174.223 40.9575 174.423 40.8575C174.633 40.7475 174.878 40.6575 175.158 40.5875C175.448 40.5075 175.753 40.4675 176.073 40.4675C176.283 40.4675 176.478 40.4875 176.658 40.5275C176.838 40.5675 176.993 40.6325 177.123 40.7225C177.253 40.8125 177.353 40.9275 177.423 41.0675C177.503 41.2075 177.543 41.3875 177.543 41.6075L177.543 46.2125L179.133 46.2125L179.133 41.2925C179.133 40.8325 179.008 40.4475 178.758 40.1375C178.508 39.8175 178.163 39.5725 177.723 39.4025C177.293 39.2325 176.793 39.1475 176.223 39.1475C175.583 39.1475 175.013 39.2375 174.513 39.4175C174.023 39.5975 173.623 39.7825 173.313 39.9725L173.973 41.1125ZM182.626 39.3125L181.021 39.3125L181.021 46.2125L182.626 46.2125L182.626 39.3125ZM184.681 41.0375L185.461 39.6725C185.311 39.4825 185.126 39.3525 184.906 39.2825C184.686 39.2025 184.451 39.1625 184.201 39.1625C183.851 39.1625 183.511 39.2875 183.181 39.5375C182.861 39.7875 182.596 40.1275 182.386 40.5575C182.186 40.9775 182.086 41.4625 182.086 42.0125L182.626 42.3275C182.626 41.9975 182.661 41.7125 182.731 41.4725C182.811 41.2225 182.936 41.0275 183.106 40.8875C183.276 40.7475 183.496 40.6775 183.766 40.6775C183.966 40.6775 184.131 40.7075 184.261 40.7675C184.391 40.8275 184.531 40.9175 184.681 41.0375ZM185.613 39.3125L185.613 40.7375L189.528 40.7375L189.528 39.3125L185.613 39.3125ZM186.768 36.9125L186.768 46.2125L188.373 46.2125L188.373 36.9125L186.768 36.9125Z" fill="rgb(4,30,66)" fill-rule="nonzero" />
	</g>
</svg>
